# xmcd
#
# Track frame offsets:
#	180
#	14732
#	29421
#	40893
#	54663
#	67729
#	79588
#	94588
#	105925
#	118070
#
# Disc length: 1779 seconds
#
# Revision: 0
# Processed by: cddbd v1.4PL0 Copyright (c) Steve Scherf et al.
# Submitted via: dBpowerAMP V4.0
#
DISCID=7606f10a
DTITLE=Variuos Artist - Southern Star Magic
DYEAR=1900
DGENRE=Country
TTITLE0=Fire
TTITLE1=Magic
TTITLE2=Crawfishin' Time in Louisana
TTITLE3=Bartender
TTITLE4=Only Girl in The World
TTITLE5=I've Been Down Before
TTITLE6=Where do We go From Here
TTITLE7=She's a Gear Jammer
TTITLE8=U.S.A.
TTITLE9=Video Poker Machine Blues
EXTD=
EXTT0=
EXTT1=
EXTT2=
EXTT3=
EXTT4=
EXTT5=
EXTT6=
EXTT7=
EXTT8=
EXTT9=
PLAYORDER=
